# xmcd
#
# Track frame offsets: 
#        150
#        3375
#        5729
#        10874
#        12871
#        13401
#        16902
#        17927
#
# Disc length: 294 seconds
#
# Revision: 0
# Processed by: cddbd v1.5.2PL0 Copyright (c) Steve Scherf et al.
# Submitted via: ExactAudioCopy v1.0b3
#
DISCID=51012408
DTITLE=Condemned - Grind Intoxicating Nation
DYEAR=2004
DGENRE=Grindcore
TTITLE0=Who Says We're Drunk? #1
TTITLE1=Lambanog
TTITLE2=Dead Intoxicated
TTITLE3=Vodka
TTITLE4=Rhum
TTITLE5=Alcohol Locos
TTITLE6=Gin
TTITLE7=Who Says We're Drunk? #2
EXTD=
EXTT0=
EXTT1=
EXTT2=
EXTT3=
EXTT4=
EXTT5=
EXTT6=
EXTT7=
PLAYORDER=
